<svg width="26" height="28" viewBox="0 0 26 28" fill="none" xmlns="http://www.w3.org/2000/svg">
<path d="M2.14514 9.79999H24.1326L21.4512 26.6H4.29026L2.14514 9.79999Z" fill="#D5DAE0"/>
<rect y="8.35196" width="26" height="2.23273" rx="1.11637" fill="#342F2C"/>
<rect x="5.24561" y="25.7673" width="14.8816" height="2.23273" rx="1.11637" fill="#342F2C"/>
<rect width="10.1775" height="1.86337" rx="0.931683" transform="matrix(0.418151 -0.908378 0.78686 0.617132 4.77258 9.29434)" fill="#342F2C"/>
<rect width="9.98124" height="1.86652" rx="0.933262" transform="matrix(0.423198 0.906037 -0.782464 0.622696 16.9022 0)" fill="#342F2C"/>
<rect x="7.29822" y="13.9337" width="1.71053" height="8.48439" rx="0.855263" fill="#342F2C"/>
<rect width="1.72617" height="16.8067" rx="0.863087" transform="matrix(0.97791 -0.209028 0.12448 0.992222 1.20087 9.52353)" fill="#342F2C"/>
<rect width="1.72424" height="16.818" rx="0.862122" transform="matrix(0.98063 0.195869 -0.116434 0.993198 23.0547 9.17062)" fill="#342F2C"/>
<rect x="12.1447" y="13.9337" width="1.71053" height="8.48439" rx="0.855263" fill="#342F2C"/>
<rect x="16.9913" y="13.9337" width="1.71053" height="8.48439" rx="0.855263" fill="#342F2C"/>
<path d="M4.81794 24.4648L5.07452 25.023L5.47364 25.4695L5.9868 25.73L6.72803 25.7672V28H5.81574H5.41662L5.07452 27.8511L4.41881 27.4046L3.67759 26.4743L3.3925 25.8789L3.16443 25.2091L4.81794 24.4648Z" fill="#342F2C"/>
<path d="M19.1579 25.7673H20.0417L20.4978 25.5812L20.7829 25.2463L21.068 24.9114L21.2961 24.502L22.6645 25.7673L22.4079 26.3254L22.0373 26.8836L21.6952 27.293L21.2961 27.5534L20.8684 27.8511L20.4123 28H19.1579V25.7673Z" fill="#342F2C"/>
</svg>
