<svg width="26" height="30" viewBox="0 0 26 30" fill="none" xmlns="http://www.w3.org/2000/svg">
<path d="M4 1H16C20.9706 1 25 5.02944 25 10V26C25 27.6569 23.6569 29 22 29H4C2.34315 29 1 27.6569 1 26V4L1.00391 3.8457C1.08421 2.26055 2.39489 1 4 1Z" fill="#D5DAE0" stroke="#342F2C" stroke-width="2"/>
<line x1="25" y1="10" x2="17" y2="10" stroke="#342F2C" stroke-width="2"/>
<line x1="18" y1="1" x2="18" y2="9" stroke="#342F2C" stroke-width="2"/>
<path d="M10.8571 23.4118H8C7.84845 23.4118 7.7031 23.356 7.59594 23.2567C7.48878 23.1574 7.42857 23.0228 7.42857 22.8824V12.2941H5.71429C5.25963 12.2941 4.82359 12.1268 4.5021 11.8289C4.18061 11.5311 4 11.1271 4 10.7059V8.58824C4 8.16701 4.18061 7.76304 4.5021 7.46518C4.82359 7.16733 5.25963 7 5.71429 7H12.5714C13.0261 7 13.4621 7.16733 13.7836 7.46518C14.1051 7.76304 14.2857 8.16701 14.2857 8.58824V10.7059C14.2857 11.1271 14.1051 11.5311 13.7836 11.8289C13.4621 12.1268 13.0261 12.2941 12.5714 12.2941H8.57143V16H10.8571V15.4706C10.8571 15.1898 10.9776 14.9205 11.1919 14.7219C11.4062 14.5233 11.6969 14.4118 12 14.4118H18.8571C19.1602 14.4118 19.4509 14.5233 19.6653 14.7219C19.8796 14.9205 20 15.1898 20 15.4706V17.5882C20 17.8691 19.8796 18.1384 19.6653 18.3369C19.4509 18.5355 19.1602 18.6471 18.8571 18.6471H12C11.6969 18.6471 11.4062 18.5355 11.1919 18.3369C10.9776 18.1384 10.8571 17.8691 10.8571 17.5882V17.0588H8.57143V22.3529H10.8571V21.8235C10.8571 21.5427 10.9776 21.2734 11.1919 21.0748C11.4062 20.8763 11.6969 20.7647 12 20.7647H18.8571C19.1602 20.7647 19.4509 20.8763 19.6653 21.0748C19.8796 21.2734 20 21.5427 20 21.8235V23.9412C20 24.222 19.8796 24.4913 19.6653 24.6899C19.4509 24.8884 19.1602 25 18.8571 25H12C11.6969 25 11.4062 24.8884 11.1919 24.6899C10.9776 24.4913 10.8571 24.222 10.8571 23.9412V23.4118ZM5.71429 8.05882C5.56273 8.05882 5.41739 8.1146 5.31022 8.21388C5.20306 8.31317 5.14286 8.44783 5.14286 8.58824V10.7059C5.14286 10.8463 5.20306 10.9809 5.31022 11.0802C5.41739 11.1795 5.56273 11.2353 5.71429 11.2353H12.5714C12.723 11.2353 12.8683 11.1795 12.9755 11.0802C13.0827 10.9809 13.1429 10.8463 13.1429 10.7059V8.58824C13.1429 8.44783 13.0827 8.31317 12.9755 8.21388C12.8683 8.1146 12.723 8.05882 12.5714 8.05882H5.71429ZM12 15.4706V17.5882H18.8571V15.4706H12ZM12 21.8235V23.9412H18.8571V21.8235H12Z" fill="#342F2C"/>
</svg>
