<svg width="60" height="38" viewBox="0 0 60 38" fill="none" xmlns="http://www.w3.org/2000/svg">
<g clip-path="url(#clip0_2_55)">
<mask id="mask0_2_55" style="mask-type:luminance" maskUnits="userSpaceOnUse" x="0" y="0" width="60" height="38">
<path d="M60 0H0V38H60V0Z" fill="white"/>
</mask>
<g mask="url(#mask0_2_55)">
<path d="M50.2483 30.452H51.6204C52.1124 30.452 52.4717 30.5465 52.6981 30.7355C52.8943 30.9025 52.9924 31.1436 52.9924 31.4585V31.5037C52.9924 31.8187 52.8928 32.0611 52.6936 32.2308C52.4641 32.4253 52.1064 32.5225 51.6204 32.5225H49.3155V29.4661H50.2483V30.452ZM51.5479 31.8488C51.7049 31.8488 51.8226 31.8173 51.9011 31.7543C51.9826 31.6913 52.0234 31.6051 52.0234 31.4955V31.4668C52.0234 31.3599 51.9826 31.2764 51.9011 31.2161C51.8226 31.1559 51.7049 31.1257 51.5479 31.1257H50.2483V31.8488H51.5479ZM54.5004 29.4661V32.5225H53.5675V29.4661H54.5004Z" fill="#342F2C"/>
<path d="M46.4578 32.5225V30.1645H45.1536V29.4661H48.6902V30.1645H47.386V32.5225H46.4578Z" fill="#342F2C"/>
<path d="M43.5974 32.5225V31.2942H41.7181V32.5225H40.7853V29.4661H41.7181V30.5999H43.5974V29.4661H44.5302V32.5225H43.5974Z" fill="#342F2C"/>
<path d="M36.929 29.4661H40.0128V30.1316H37.8483V30.6287H39.9449V31.3188H37.8483V31.8488H40.04V32.5225H36.929V29.4661Z" fill="#342F2C"/>
<path d="M35.1641 32.5225V31.2942H33.2849V32.5225H32.3521V29.4661H33.2849V30.5999H35.1641V29.4661H36.097V32.5225H35.1641Z" fill="#342F2C"/>
<path d="M29.6456 29.4168C30.02 29.4168 30.34 29.462 30.6056 29.5524C30.8713 29.64 31.0856 29.7618 31.2486 29.918C31.3936 30.0576 31.4992 30.2151 31.5656 30.3904C31.6351 30.5657 31.6697 30.7437 31.6697 30.9245V31.0477C31.6697 31.2257 31.6351 31.4037 31.5656 31.5817C31.4992 31.757 31.3936 31.9145 31.2486 32.0542C31.0826 32.2158 30.8667 32.3431 30.6011 32.4362C30.3354 32.5266 30.0169 32.5718 29.6456 32.5718H29.4464C28.9604 32.5718 28.5528 32.4883 28.2238 32.3212C27.9369 32.1761 27.7286 31.9802 27.5988 31.7337C27.4811 31.5229 27.4222 31.2942 27.4222 31.0477V30.9245C27.4222 30.678 27.4811 30.4493 27.5988 30.2384C27.7316 29.9919 27.94 29.7988 28.2238 29.6592C28.5498 29.4976 28.9573 29.4168 29.4464 29.4168H29.6456ZM30.7007 30.9573C30.7007 30.7273 30.6267 30.5397 30.4788 30.3945C30.2886 30.2082 29.9777 30.1152 29.546 30.1152C29.1234 30.1152 28.8139 30.2082 28.6177 30.3945C28.4667 30.5397 28.3913 30.7273 28.3913 30.9573V31.0148C28.3913 31.1162 28.4094 31.2161 28.4456 31.3147C28.4818 31.4133 28.5407 31.5009 28.6222 31.5777C28.8215 31.7721 29.1294 31.8693 29.546 31.8693C29.9747 31.8693 30.2856 31.7721 30.4788 31.5777C30.6267 31.4325 30.7007 31.2449 30.7007 31.0148V30.9573Z" fill="#342F2C"/>
<path d="M23.2468 32.5225V29.4661H26.7381V32.5225H25.8053V30.1398H24.1796V32.5225H23.2468Z" fill="#342F2C"/>
<path d="M17.8296 32.5225V29.4661H19.0704L20.1436 31.5366L21.2485 29.4661H22.4123V32.5225H21.5021V30.5219L20.4787 32.5225H19.7496L18.7262 30.5219V32.5225H17.8296Z" fill="#342F2C"/>
<path d="M15.1233 29.4168C15.4976 29.4168 15.8176 29.462 16.0833 29.5524C16.349 29.64 16.5633 29.7618 16.7263 29.918C16.8712 30.0576 16.9769 30.2151 17.0433 30.3904C17.1127 30.5657 17.1474 30.7437 17.1474 30.9245V31.0477C17.1474 31.2257 17.1127 31.4037 17.0433 31.5817C16.9769 31.757 16.8712 31.9145 16.7263 32.0542C16.5602 32.2158 16.3444 32.3431 16.0787 32.4362C15.8131 32.5266 15.4946 32.5718 15.1233 32.5718H14.924C14.438 32.5718 14.0304 32.4883 13.7014 32.3212C13.4146 32.1761 13.2063 31.9802 13.0764 31.7337C12.9587 31.5229 12.8999 31.2942 12.8999 31.0477V30.9245C12.8999 30.678 12.9587 30.4493 13.0764 30.2384C13.2093 29.9919 13.4176 29.7988 13.7014 29.6592C14.0274 29.4976 14.435 29.4168 14.924 29.4168H15.1233ZM16.1784 30.9573C16.1784 30.7273 16.1044 30.5397 15.9564 30.3945C15.7663 30.2082 15.4554 30.1152 15.0236 30.1152C14.601 30.1152 14.2916 30.2082 14.0953 30.3945C13.9444 30.5397 13.8689 30.7273 13.8689 30.9573V31.0148C13.8689 31.1162 13.887 31.2161 13.9233 31.3147C13.9595 31.4133 14.0184 31.5009 14.0999 31.5777C14.2991 31.7721 14.607 31.8693 15.0236 31.8693C15.4523 31.8693 15.7633 31.7721 15.9564 31.5777C16.1044 31.4325 16.1784 31.2449 16.1784 31.0148V30.9573Z" fill="#342F2C"/>
<path d="M11.6498 32.5225L10.0287 31.0847V32.5225H9.09583V29.4661H10.0287V30.7232L11.6045 29.4661H12.7909L11.0158 30.8669L12.8679 32.5225H11.6498Z" fill="#342F2C"/>
<path d="M37.3287 37.6577V35.6036L35.3589 37.6577H34.426V34.6012H35.3589V36.6553L37.3287 34.6012H38.2615V37.6577H37.3287Z" fill="#342F2C"/>
<path d="M32.6589 37.6577V35.6036L30.6891 37.6577H29.7562V34.6012H30.6891V36.6553L32.6589 34.6012H33.5917V37.6577H32.6589Z" fill="#342F2C"/>
<path d="M26.4175 37.6577V34.6012H29.225V35.2749H27.3503V37.6577H26.4175Z" fill="#342F2C"/>
<path d="M23.021 36.6799V37.6577H22.0882V34.6012H24.3705C24.8686 34.6012 25.2338 34.6957 25.4663 34.8846C25.6656 35.0517 25.7652 35.2955 25.7652 35.6159V35.6611C25.7652 35.9788 25.664 36.2212 25.4618 36.3882C25.2294 36.5827 24.8656 36.6799 24.3705 36.6799H23.021ZM23.021 35.998H24.3026C24.6316 35.998 24.7961 35.8816 24.7961 35.6488V35.6324C24.7961 35.5228 24.7554 35.4379 24.6739 35.3777C24.5924 35.3146 24.4686 35.2832 24.3026 35.2832H23.021V35.998Z" fill="#342F2C"/>
<path d="M18.232 34.6012H21.3158V35.2668H19.1513V35.7638H21.2479V36.454H19.1513V36.9839H21.343V37.6577H18.232V34.6012Z" fill="#342F2C"/>
<path d="M16.4672 37.6577V36.4293H14.5879V37.6577H13.6551V34.6012H14.5879V35.735H16.4672V34.6012H17.4V37.6577H16.4672Z" fill="#342F2C"/>
<path d="M12.9721 36.1828C12.9721 36.3554 12.9404 36.5293 12.877 36.7045C12.8136 36.8799 12.714 37.0373 12.5782 37.177C12.4181 37.3386 12.2098 37.4673 11.9532 37.5632C11.6966 37.6563 11.3872 37.7028 11.0249 37.7028H10.8166C10.1615 37.7028 9.66944 37.5673 9.34037 37.2961C9.20149 37.1839 9.09885 37.0565 9.03245 36.9141C8.96604 36.7717 8.93283 36.6252 8.93283 36.4745V36.4622H9.89284C9.89586 36.5005 9.91095 36.5499 9.93815 36.6101C9.9653 36.6676 10.0106 36.7237 10.074 36.7785C10.2521 36.9401 10.5329 37.0209 10.9162 37.0209C11.2151 37.0209 11.4581 36.9607 11.6453 36.8401C11.8053 36.7361 11.9155 36.6005 11.9759 36.4335H10.4408V35.7844H11.9759C11.9155 35.62 11.8053 35.49 11.6453 35.3941C11.4642 35.2873 11.2227 35.2339 10.9208 35.2339C10.5434 35.2339 10.2627 35.3119 10.0785 35.468C10.0061 35.5311 9.95773 35.5913 9.93361 35.6488L9.89284 35.772H8.93283V35.7638C8.93283 35.6104 8.96604 35.4625 9.03245 35.3201C9.09885 35.1777 9.20301 35.0517 9.34491 34.9422C9.67398 34.6848 10.1645 34.556 10.8166 34.556H11.0249C11.3872 34.556 11.6966 34.6026 11.9532 34.6957C12.2129 34.7861 12.4212 34.9107 12.5782 35.0696C12.714 35.2092 12.8136 35.3667 12.877 35.542C12.9404 35.7145 12.9721 35.8871 12.9721 36.0596V36.1828Z" fill="#342F2C"/>
<path d="M60 13.9583C60 15.366 59.739 16.785 59.2182 18.2152C58.6969 19.6454 57.8781 20.9302 56.7611 22.0699C55.4456 23.3883 53.7331 24.4386 51.6238 25.2207C49.5139 25.9804 46.9701 26.3604 43.9916 26.3604H42.2792C36.8936 26.3604 32.8482 25.2542 30.1429 23.042C29.0013 22.1258 28.1574 21.0867 27.6114 19.9246C27.0654 18.7626 26.7924 17.5672 26.7924 16.3381V16.2376H34.6848C34.7096 16.5504 34.8337 16.9526 35.0571 17.4442C35.2805 17.9135 35.6527 18.3716 36.1739 18.8185C37.6382 20.137 39.9464 20.7962 43.0985 20.7962C45.5554 20.7962 47.5531 20.3046 49.0921 19.3213C50.4075 18.4721 51.3136 17.3661 51.8098 16.0029H39.1894V10.7069H51.8098C51.3136 9.36612 50.4075 8.30469 49.0921 7.52259C47.603 6.65105 45.6173 6.21533 43.1355 6.21533C40.0332 6.21533 37.7251 6.85221 36.2112 8.12592C35.6155 8.63985 35.2184 9.13145 35.0198 9.60078L34.6848 10.6063H26.7924V10.5393C26.7924 9.28795 27.0654 8.08119 27.6114 6.91921C28.1574 5.75722 29.0137 4.7293 30.1802 3.83548C32.8854 1.73493 36.9185 0.684662 42.2792 0.684662H43.9916C46.9701 0.684662 49.5139 1.06454 51.6238 1.82432C53.7581 2.56174 55.4705 3.57848 56.7611 4.87456C57.8781 6.01423 58.6969 7.29909 59.2182 8.72924C59.739 10.137 60 11.5449 60 12.9527V13.9583Z" fill="#342F2C" fill-opacity="0.6"/>
<path fill-rule="evenodd" clip-rule="evenodd" d="M0 0L13.3963 11.982H9.62266L16.7924 23.964L3.39623 11.982H7.16983L0 0Z" fill="#F5EA29"/>
<path fill-rule="evenodd" clip-rule="evenodd" d="M9.13206 8.16801L0 0L7.16982 11.982H3.39623L9.13206 17.1123V26.3604H16.9057V14.3784L30.4151 26.3604H40.5661L25.1321 12.564L39.9245 0.890124H30.0377L16.9057 11.3658V0.890124H9.13206V8.16801ZM9.13206 8.16801V17.1123L16.7924 23.964L9.62266 11.982H13.3963L9.13206 8.16801Z" fill="#342F2C"/>
</g>
</g>
<defs>
<clipPath id="clip0_2_55">
<rect width="60" height="38" fill="white"/>
</clipPath>
</defs>
</svg>
