<svg width="44" height="49" viewBox="0 0 44 49" fill="none" xmlns="http://www.w3.org/2000/svg">
<path d="M25.8594 32.3711C26.3932 32.3711 26.6602 32.6706 26.6602 33.2695C26.6602 33.7643 26.2826 34.2591 25.5273 34.7539C24.1211 35.6784 22.9362 36.2839 21.9727 36.5703C20.1628 37.1042 18.2617 37.3711 16.2695 37.3711C14.2773 37.3711 12.3568 37.0195 10.5078 36.3164C8.67188 35.6003 7.10286 34.6042 5.80078 33.3281C3.07943 30.6458 1.71875 27.1823 1.71875 22.9375C1.71875 20.8932 2.10286 19.0182 2.87109 17.3125C3.63932 15.5938 4.70052 14.1224 6.05469 12.8984C8.91927 10.3073 12.5195 9.01172 16.8555 9.01172C19.2904 9.01172 21.4323 9.42839 23.2812 10.2617C25.2474 11.1341 26.2305 11.8763 26.2305 12.4883C26.2305 12.7357 26.1458 12.9505 25.9766 13.1328C25.8203 13.3151 25.638 13.4062 25.4297 13.4062C25.013 13.4062 24.6354 13.224 24.2969 12.8594C23.9583 12.4818 23.4961 12.1432 22.9102 11.8438C22.3372 11.5443 21.7057 11.2839 21.0156 11.0625C19.6094 10.6328 18.3268 10.418 17.168 10.418C16.0221 10.418 15.0716 10.4961 14.3164 10.6523V35.6914C15.2279 35.8477 16.0352 35.9258 16.7383 35.9258C17.4414 35.9258 18.1576 35.8802 18.8867 35.7891C19.6159 35.6979 20.332 35.5482 21.0352 35.3398C22.6107 34.8711 23.7956 34.181 24.5898 33.2695C24.8763 32.931 25.1042 32.6966 25.2734 32.5664C25.4427 32.4362 25.638 32.3711 25.8594 32.3711Z" fill="#342F2C"/>
<path d="M25.3398 33.5234C22.957 33.5234 21.3294 33.5039 20.457 33.4648L19.8906 34.8125C19.7214 35.1901 19.5651 35.5872 19.4219 36.0039C19.1224 36.8112 18.7057 37.2148 18.1719 37.2148C17.9245 37.2148 17.7227 37.1367 17.5664 36.9805C17.4102 36.8242 17.332 36.6615 17.332 36.4922C17.332 36.2057 17.4557 35.8867 17.7031 35.5352C18.0938 34.9883 18.4779 34.2721 18.8555 33.3867C17.7357 33.2826 17.1758 32.957 17.1758 32.4102C17.1758 31.8633 17.4948 31.5898 18.1328 31.5898C18.5234 31.5898 18.9792 31.6549 19.5 31.7852L29.2461 8.11328L42.6055 37H32.4297L30.8086 33.5234H25.3398ZM21.082 31.9414C22.332 32.0456 23.4518 32.0977 24.4414 32.0977H30.1641L25.2812 21.5703L21.082 31.9414Z" fill="#342F2C"/>
</svg>
