<svg width="80" height="39" viewBox="0 0 80 39" fill="none" xmlns="http://www.w3.org/2000/svg">
<g clip-path="url(#clip0_102_29)">
<path fill-rule="evenodd" clip-rule="evenodd" d="M0 0L17.8616 17.7273H12.8302L22.3899 35.4545L4.5283 17.7273H9.55975L0 0Z" fill="#F5EA29"/>
<path d="M80 20.6512C80 22.734 79.6523 24.8334 78.9575 26.9493C78.2626 29.0652 77.1708 30.9662 75.6815 32.6523C73.9275 34.6029 71.6443 36.1568 68.8317 37.3139C66.0186 38.438 62.6269 39 58.6556 39H56.3723C49.1916 39 43.7976 37.3635 40.1906 34.0905C38.6684 32.7349 37.5433 31.1976 36.8153 29.4784C36.0873 27.7593 35.7233 25.9905 35.7233 24.1722V24.0234H46.2464C46.2795 24.4862 46.445 25.0814 46.7428 25.8087C47.0407 26.503 47.537 27.1807 48.2319 27.842C50.1843 29.7926 53.2619 30.7678 57.4647 30.7678C60.7406 30.7678 63.4043 30.0405 65.4561 28.5858C67.2101 27.3295 68.4181 25.693 69.0797 23.6763H52.2526V15.8409H69.0797C68.4181 13.8572 67.2101 12.2868 65.4561 11.1297C63.4707 9.84027 60.8231 9.19561 57.514 9.19561C53.3776 9.19561 50.3002 10.1378 48.2816 12.0223C47.4874 12.7827 46.9579 13.51 46.6932 14.2043L46.2464 15.692H35.7233V15.5929C35.7233 13.7415 36.0873 11.9561 36.8153 10.237C37.5433 8.51782 38.685 6.99702 40.2403 5.67461C43.8473 2.56687 49.2247 1.013 56.3723 1.013H58.6556C62.6269 1.013 66.0186 1.57504 68.8317 2.69911C71.6775 3.79012 73.9608 5.29439 75.6815 7.21192C77.1708 8.89804 78.2626 10.799 78.9575 12.9149C79.6523 14.9978 80 17.0806 80 19.1634V20.6512Z" fill="#342F2C" fill-opacity="0.6"/>
<path fill-rule="evenodd" clip-rule="evenodd" d="M12.1761 12.0845L0 0L9.55975 17.7273H4.5283L12.1761 25.3175V39.0001H22.5409V21.2728L40.5535 39.0001H54.0881L33.5094 18.5884L53.2327 1.31693H40.0503L22.5409 16.8156V1.31693H12.1761V12.0845ZM12.1761 12.0845V25.3175L22.3899 35.4545L12.8302 17.7273H17.8616L12.1761 12.0845Z" fill="#342F2C"/>
</g>
<defs>
<clipPath id="clip0_102_29">
<rect width="80" height="39" fill="white"/>
</clipPath>
</defs>
</svg>
