<svg width="100" height="48" viewBox="0 0 100 48" fill="none" xmlns="http://www.w3.org/2000/svg">
<g clip-path="url(#clip0_102_29)">
<path fill-rule="evenodd" clip-rule="evenodd" d="M0 0L22.327 21.8182H16.0377L27.9874 43.6364L5.66038 21.8182H11.9497L0 0Z" fill="#F5EA29"/>
<path d="M100 25.4169C100 27.9803 99.5654 30.5642 98.6969 33.1684C97.8283 35.7725 96.4636 38.1123 94.6019 40.1875C92.4095 42.5882 89.5554 44.5006 86.0396 45.9248C82.5233 47.3082 78.2837 48 73.3195 48H70.4654C61.4895 48 54.7471 45.9858 50.2383 41.9575C48.3356 40.2892 46.9291 38.3971 46.0191 36.2812C45.1091 34.1653 44.6541 31.9883 44.6541 29.7503V29.5673H57.8081C57.8495 30.1369 58.0563 30.8694 58.4285 31.7645C58.8008 32.6191 59.4213 33.4532 60.29 34.267C62.7305 36.6678 66.5774 37.8681 71.8308 37.8681C75.9258 37.8681 79.2554 36.9729 81.8201 35.1825C84.0126 33.6363 85.5227 31.6222 86.3497 29.14H65.3157V19.4964H86.3497C85.5227 17.055 84.0126 15.1222 81.8201 13.698C79.3384 12.1111 76.029 11.3177 71.8925 11.3177C66.722 11.3177 62.8752 12.4773 60.352 14.7967C59.3593 15.7325 58.6974 16.6277 58.3665 17.4822L57.8081 19.3133H44.6541V19.1912C44.6541 16.9126 45.1091 14.7153 46.0191 12.5994C46.9291 10.4835 48.3563 8.61171 50.3004 6.98414C54.8091 3.15922 61.5309 1.24677 70.4654 1.24677H73.3195C78.2837 1.24677 82.5233 1.9385 86.0396 3.32198C89.5969 4.66476 92.451 6.51617 94.6019 8.87621C96.4636 10.9514 97.8283 13.2911 98.6969 15.8953C99.5654 18.4588 100 21.0223 100 23.5858V25.4169Z" fill="#342F2C" fill-opacity="0.6"/>
<path fill-rule="evenodd" clip-rule="evenodd" d="M15.2201 14.8733L0 0L11.9497 21.8182H5.66038L15.2201 31.16V48.0001H28.1761V26.1819L50.6918 48.0001H67.6101L41.8868 22.878L66.5409 1.62084H50.0629L28.1761 20.6962V1.62084H15.2201V14.8733ZM15.2201 14.8733V31.16L27.9874 43.6364L16.0377 21.8182H22.327L15.2201 14.8733Z" fill="#342F2C"/>
</g>
<defs>
<clipPath id="clip0_102_29">
<rect width="100" height="48" fill="white"/>
</clipPath>
</defs>
</svg>
